<!DOCTYPE svg PUBLIC "-//W3C//DTD SVG 20010904//EN" "http://www.w3.org/TR/2001/REC-SVG-20010904/DTD/svg10.dtd">
<svg version="1.0" xmlns="http://www.w3.org/2000/svg" width="1200px" height="1200px" viewBox="0 0 12000 12000" preserveAspectRatio="xMidYMid meet">
<g id="layer101" fill="#000000" stroke="none">
</g>
<g id="layer102" fill="#1f439b" stroke="none">
<path d="M5810 11994 c-25 -2 -142 -11 -260 -19 -281 -21 -573 -62 -815 -116 -288 -64 -392 -94 -680 -190 -77 -26 -151 -51 -165 -57 -14 -6 -79 -32 -145 -58 -247 -96 -574 -259 -820 -407 -681 -411 -1263 -936 -1728 -1560 -562 -753 -929 -1600 -1101 -2537 -104 -567 -119 -1248 -40 -1835 138 -1029 523 -1974 1141 -2802 552 -740 1275 -1348 2098 -1763 618 -311 1234 -502 1920 -594 505 -68 1065 -68 1570 0 1029 138 1974 523 2802 1141 740 552 1348 1275 1763 2098 311 618 502 1234 594 1920 68 504 68 1056 0 1560 -146 1086 -578 2105 -1248 2945 -55 69 -103 127 -106 130 -3 3 -41 47 -84 98 -101 120 -438 457 -558 558 -51 43 -95 81 -98 84 -3 3 -61 51 -130 106 -174 139 -328 246 -632 440 -21 13 -40 24 -43 24 -3 0 -22 11 -43 24 -58 38 -193 110 -367 195 -217 107 -271 130 -565 244 -91 35 -276 95 -465 151 -306 90 -768 170 -1160 202 -197 15 -547 26 -635 18z"/>
</g>
<g id="layer103" fill="#fdfdfe" stroke="none">
<path d="M5630 11700 c-165 -6 -304 -22 -455 -50 -27 -5 -90 -15 -140 -21 -91 -11 -425 -84 -545 -119 -36 -10 -92 -26 -125 -36 -33 -9 -94 -29 -135 -44 l-75 -28 -7 -64 c-4 -34 -12 -115 -17 -178 -6 -63 -17 -185 -26 -270 -8 -85 -20 -220 -25 -300 -6 -80 -15 -206 -20 -280 -6 -74 -10 -198 -11 -275 0 -77 -4 -189 -8 -250 -5 -60 -5 -114 -1 -118 4 -5 45 0 91 11 46 12 100 24 119 27 19 4 62 13 95 20 124 28 331 66 390 72 l62 6 36 -66 c20 -37 59 -101 88 -144 28 -42 61 -98 74 -123 39 -76 49 -81 141 -71 116 13 364 29 657 41 274 12 585 3 882 -25 312 -30 280 -30 309 2 14 15 26 31 26 36 0 4 41 69 90 143 50 75 90 139 90 142 1 4 11 20 25 36 l23 29 104 -21 c56 -12 132 -29 168 -37 36 -9 115 -27 175 -40 61 -14 134 -32 164 -40 30 -8 65 -12 77 -9 24 6 24 7 24 163 0 196 -32 737 -61 1021 -6 58 -15 143 -19 190 -18 186 -30 277 -40 327 -11 48 -14 53 -53 67 -80 30 -193 63 -297 89 -390 97 -422 103 -705 142 -66 9 -144 21 -173 27 -127 24 -576 32 -972 18z m610 -224 c232 -41 399 -118 524 -240 112 -109 166 -221 166 -347 0 -66 -42 -206 -83 -278 -36 -65 -142 -179 -215 -233 -67 -49 -268 -148 -303 -148 -14 0 -30 -5 -37 -12 -19 -19 -101 -30 -267 -35 -163 -5 -205 0 -335 37 -153 44 -262 98 -368 184 -83 67 -118 104 -171 183 -57 85 -88 164 -102 266 -11 80 -10 91 10 156 31 99 85 174 186 257 66 55 220 140 275 153 25 6 72 19 105 30 33 11 91 25 130 31 38 6 72 13 74 16 12 11 323 -4 411 -20z"/>
<path d="M5812 11315 c-108 -31 -219 -93 -296 -166 -102 -96 -131 -156 -131 -263 1 -120 36 -187 160 -311 43 -43 148 -98 255 -135 96 -33 276 -34 380 -2 108 33 188 75 265 138 115 96 159 182 160 314 0 55 -6 76 -35 135 -68 135 -186 226 -359 276 -91 27 -325 35 -399 14z"/>
<path d="M8815 10823 c-40 -6 -91 -56 -111 -110 -13 -34 -15 -63 -11 -136 14 -239 181 -471 518 -720 l37 -26 5 -123 c3 -68 10 -181 16 -253 7 -71 13 -168 14 -215 l2 -85 -45 -6 c-162 -25 -252 -145 -254 -339 0 -116 53 -263 140 -381 76 -105 196 -190 330 -235 82 -27 124 -29 208 -9 118 28 186 122 195 270 4 46 11 88 16 93 10 9 126 25 305 42 104 10 254 28 296 36 28 5 35 0 81 -53 37 -43 71 -69 125 -96 l74 -38 49 18 c44 17 49 22 63 68 17 59 12 173 -12 250 -16 51 -147 264 -172 278 -8 4 -34 26 -59 47 -25 22 -64 45 -88 52 -50 15 -108 71 -222 214 -87 109 -247 286 -391 431 -50 50 -95 100 -98 110 -4 10 -11 53 -16 95 -10 85 -62 213 -133 323 -42 67 -230 255 -304 306 -206 141 -240 159 -349 184 -62 14 -142 17 -209 8z m1092 -1260 c155 -158 327 -359 441 -515 25 -35 29 -70 8 -87 -8 -6 -50 -16 -95 -21 -45 -6 -118 -15 -163 -20 -166 -20 -264 -30 -313 -30 -50 0 -50 0 -125 82 l-75 82 -12 145 c-11 138 -34 363 -49 478 l-7 51 59 1 c33 0 73 4 89 10 17 5 36 10 44 10 7 1 97 -83 198 -186z"/>
<path d="M3045 10375 c-66 -19 -130 -34 -141 -35 -31 0 -34 -18 -23 -112 20 -172 -12 -430 -77 -624 -48 -146 -139 -347 -193 -429 -25 -38 -52 -82 -60 -97 -7 -15 -38 -57 -67 -95 -30 -37 -57 -75 -61 -83 -21 -45 -142 -181 -278 -313 -156 -150 -495 -351 -655 -387 -30 -7 -73 -19 -96 -26 -22 -8 -84 -18 -139 -23 -61 -6 -101 -15 -106 -23 -5 -7 -9 -60 -9 -118 0 -58 -5 -122 -10 -142 -21 -74 17 -98 123 -79 34 6 107 18 162 26 216 34 475 146 731 317 108 72 327 268 440 394 117 130 305 386 352 481 10 21 42 85 71 142 108 211 187 467 217 701 13 98 15 168 10 323 -3 110 -11 207 -16 218 -14 25 -34 24 -175 -16z"/>
<path d="M2575 10233 c-39 -7 -125 -39 -196 -72 -25 -11 -59 -24 -76 -27 l-29 -6 -13 -124 c-6 -68 -20 -150 -30 -182 -52 -160 -185 -427 -259 -517 -161 -196 -316 -340 -445 -414 -75 -43 -215 -101 -243 -101 -25 0 -28 -8 -53 -130 -6 -30 -18 -88 -26 -128 -22 -105 -14 -117 74 -108 67 7 198 47 306 94 255 111 567 398 758 698 47 74 158 295 191 382 23 61 62 214 76 303 14 85 10 313 -5 327 -5 5 -19 7 -30 5z"/>
<path d="M1865 9878 c-56 -20 -110 -61 -190 -142 -114 -115 -213 -270 -250 -392 -19 -64 -20 -187 -1 -203 20 -17 83 -25 98 -14 7 6 31 16 53 23 29 9 68 41 140 114 213 216 335 522 241 603 -30 25 -45 27 -91 11z"/>
<path d="M6260 8519 c-120 -6 -252 -23 -270 -34 -4 -2 -42 -11 -85 -20 -97 -20 -327 -110 -426 -166 -128 -73 -245 -152 -323 -219 -138 -119 -342 -328 -431 -444 -16 -22 -43 -55 -60 -74 -16 -20 -43 -57 -60 -83 -16 -26 -69 -99 -116 -161 -47 -62 -116 -156 -152 -208 -37 -52 -87 -123 -112 -158 -25 -34 -45 -65 -45 -68 0 -3 -19 -29 -43 -57 -71 -85 -132 -187 -170 -282 -37 -95 -62 -197 -53 -220 2 -7 1 -26 -3 -42 -4 -15 -5 -37 -1 -48 4 -11 15 -46 25 -77 10 -32 30 -69 46 -84 26 -24 31 -26 55 -15 14 6 52 31 83 55 63 49 488 469 683 675 73 77 131 131 137 127 6 -4 11 -37 11 -78 0 -148 -73 -237 -635 -783 -147 -143 -284 -281 -304 -307 -20 -25 -73 -92 -118 -148 -91 -111 -144 -200 -163 -272 -20 -74 -9 -281 17 -338 25 -55 68 -95 109 -103 24 -5 40 1 75 26 52 37 139 106 154 121 6 6 42 38 80 70 39 33 106 94 151 135 44 42 124 113 177 159 53 46 97 87 97 91 0 4 50 52 111 106 62 55 135 123 163 150 28 28 71 68 96 89 25 22 129 119 232 218 102 98 189 178 192 178 19 0 25 -54 12 -113 -25 -116 -52 -155 -202 -300 -67 -65 -139 -131 -160 -148 -33 -26 -379 -354 -541 -513 -177 -173 -445 -461 -463 -496 -14 -27 -26 -82 -35 -158 -16 -139 -6 -235 33 -325 29 -65 49 -76 107 -57 38 12 170 112 284 214 36 32 90 77 120 99 49 36 178 142 191 156 10 11 146 127 195 166 91 72 98 78 384 333 36 31 94 81 130 111 66 54 200 174 318 284 34 33 67 56 72 52 36 -22 -54 -277 -136 -387 -65 -87 -191 -238 -248 -298 -34 -36 -81 -90 -103 -120 -22 -30 -82 -100 -132 -155 -159 -173 -352 -442 -409 -570 -41 -92 -37 -209 12 -381 21 -73 69 -141 107 -149 31 -7 71 11 95 41 6 7 29 28 52 46 23 18 91 78 150 133 60 55 147 134 193 175 119 106 347 319 400 375 25 26 124 120 220 208 96 89 292 272 435 407 143 135 280 264 305 286 25 23 101 92 170 155 154 142 256 228 286 241 18 8 35 7 71 -7 159 -60 328 -251 469 -528 88 -174 138 -248 226 -336 77 -78 129 -111 193 -124 83 -17 186 -19 246 -6 l61 13 -5 61 c-2 33 -12 128 -20 210 -15 143 -26 227 -62 485 -9 63 -21 153 -26 200 -5 47 -14 126 -20 175 -23 197 -29 254 -39 360 -27 282 -31 325 -41 395 -10 69 -32 203 -60 355 -21 112 -60 270 -89 355 -15 47 -40 126 -55 175 -64 215 -267 562 -428 732 -71 74 -229 204 -292 239 -11 6 -45 24 -75 41 -69 38 -241 104 -340 131 -167 46 -422 65 -680 51z"/>
<path d="M10675 7812 c-110 -8 -261 -84 -373 -187 -120 -111 -270 -343 -327 -505 -15 -41 -32 -88 -39 -105 -23 -53 -34 -88 -51 -160 -9 -38 -20 -86 -25 -105 -60 -234 -79 -408 -79 -735 -1 -375 44 -687 141 -975 26 -75 87 -221 98 -230 3 -3 18 -32 35 -65 87 -177 239 -355 368 -431 133 -78 170 -89 302 -89 160 0 228 24 375 133 234 174 454 602 530 1032 46 258 54 347 54 630 1 307 -9 402 -76 725 -77 378 -313 798 -532 948 -81 56 -91 60 -182 90 -80 26 -146 34 -219 29z m210 -1194 c172 -174 340 -365 397 -454 14 -22 44 -62 67 -88 23 -26 41 -52 41 -58 0 -9 -19 -38 -82 -123 -4 -5 -33 -42 -65 -82 -32 -39 -93 -116 -135 -170 -90 -115 -415 -440 -427 -427 -4 5 -4 160 1 344 9 325 4 1020 -8 1168 -6 65 -5 72 12 72 10 0 96 -79 199 -182z"/>
<path d="M2323 7678 c-54 -51 -153 -149 -219 -217 -65 -69 -175 -182 -244 -252 l-126 -128 -174 -2 c-213 -2 -215 -2 -575 -17 -159 -7 -353 -15 -431 -18 -78 -3 -147 -10 -154 -14 -8 -5 -17 -35 -22 -67 -4 -32 -12 -87 -17 -123 -48 -330 -54 -421 -55 -820 -1 -257 3 -425 11 -480 6 -47 19 -146 28 -220 26 -215 54 -387 80 -495 13 -55 26 -115 30 -133 4 -18 14 -36 23 -41 9 -5 69 -14 132 -20 63 -6 158 -15 210 -20 199 -20 396 -31 705 -41 390 -12 852 -17 859 -9 6 6 -6 115 -29 269 -41 262 -61 501 -76 870 -19 491 7 984 76 1440 8 52 19 133 25 180 6 47 17 110 25 140 8 30 15 74 15 97 0 23 4 53 9 66 6 14 13 53 17 86 5 51 4 61 -8 61 -9 0 -60 -42 -115 -92z"/>
<path d="M10395 3854 c-181 -27 -428 -139 -585 -264 -25 -20 -63 -47 -85 -62 -65 -42 -345 -325 -424 -428 -39 -52 -91 -118 -114 -147 -138 -169 -282 -468 -332 -693 -26 -118 -30 -263 -11 -340 44 -170 142 -253 318 -268 105 -9 185 2 288 41 146 56 169 66 236 102 365 199 788 649 987 1052 96 193 107 217 107 230 0 8 9 40 19 71 48 140 67 349 40 433 -37 115 -127 221 -214 252 -51 17 -176 29 -230 21z m43 -400 c79 -32 132 -114 132 -202 0 -105 -100 -353 -197 -489 -13 -17 -23 -34 -23 -37 0 -17 -133 -184 -244 -306 -82 -91 -242 -242 -291 -275 -27 -19 -68 -47 -91 -62 -71 -49 -78 -53 -140 -83 -34 -16 -91 -34 -127 -40 -58 -10 -70 -10 -109 8 -68 30 -123 90 -138 151 -29 124 37 332 174 550 71 111 279 367 356 436 24 22 71 65 105 96 100 93 146 125 250 178 166 86 266 108 343 75z"/>
<path d="M1367 3825 c-119 -49 -169 -110 -208 -253 -21 -77 -22 -90 -11 -195 7 -72 24 -155 47 -232 46 -154 189 -448 267 -547 16 -21 55 -73 86 -117 179 -249 469 -518 727 -673 278 -168 584 -216 730 -115 130 90 186 265 151 475 -21 126 -75 292 -136 413 -55 110 -67 151 -48 165 7 6 38 18 68 29 133 45 420 176 690 314 187 95 190 97 190 121 0 9 -49 92 -110 183 l-110 166 -32 -11 c-18 -6 -37 -14 -43 -18 -36 -26 -470 -235 -570 -275 -38 -15 -101 -41 -140 -58 -123 -53 -188 -77 -208 -77 -11 0 -79 61 -166 148 -217 218 -328 307 -526 424 -242 143 -498 195 -648 133z m472 -420 c80 -40 159 -89 206 -127 209 -171 328 -293 468 -482 99 -133 139 -197 186 -297 82 -179 110 -322 82 -414 -15 -49 -37 -76 -86 -109 -76 -52 -210 -28 -367 64 -112 66 -235 160 -328 251 -89 87 -253 275 -295 339 -24 36 -60 88 -80 115 -53 75 -129 220 -160 305 -38 106 -46 240 -17 295 45 89 103 118 221 110 73 -5 95 -12 170 -50z"/>
<path d="M8264 3772 c-63 -20 -119 -99 -129 -180 -9 -76 10 -122 64 -157 63 -42 103 -47 164 -20 87 39 134 102 143 191 10 109 -51 175 -160 173 -34 -1 -70 -4 -82 -7z"/>
<path d="M8868 3590 c-146 -25 -277 -141 -333 -297 -54 -147 -14 -284 99 -342 91 -47 244 -27 349 46 52 36 140 146 167 208 69 161 11 340 -123 380 -55 16 -85 17 -159 5z"/>
<path d="M3931 2011 c-13 -8 -13 -31 -2 -168 7 -87 17 -203 21 -258 16 -193 30 -331 43 -420 l13 -90 203 -3 c283 -3 769 43 1006 96 198 45 510 142 747 233 l58 22 62 -31 c84 -40 223 -94 328 -126 146 -44 479 -116 589 -126 58 -6 138 -15 176 -20 130 -19 289 -29 550 -35 211 -6 263 -4 277 6 12 11 19 42 27 129 5 63 17 178 26 255 25 223 35 313 45 420 11 125 8 131 -70 110 -30 -9 -144 -33 -253 -56 -109 -22 -224 -46 -255 -55 -52 -14 -157 -31 -322 -54 -36 -5 -106 -18 -155 -28 -50 -11 -148 -25 -220 -31 -71 -7 -182 -19 -245 -29 -162 -24 -1047 -23 -1215 1 -60 9 -157 21 -214 27 -58 6 -150 19 -205 29 -56 11 -135 24 -176 30 -105 16 -223 38 -300 55 -36 8 -130 29 -210 46 -80 18 -183 43 -229 56 -46 13 -84 24 -85 24 0 0 -7 -4 -15 -9z"/>
<path d="M5970 1171 c-25 -14 -429 -147 -515 -170 -123 -32 -283 -69 -355 -81 -36 -6 -105 -17 -155 -26 -201 -33 -575 -63 -792 -64 -67 0 -124 -3 -126 -7 -7 -15 8 -142 19 -153 10 -10 153 -62 219 -80 17 -5 55 -16 85 -25 211 -62 371 -103 447 -115 38 -6 97 -17 133 -25 129 -27 166 -33 530 -77 145 -18 923 -17 1080 1 356 40 689 101 935 171 86 24 488 151 493 155 2 2 6 22 8 45 3 23 10 53 15 68 15 38 -10 52 -90 52 -201 0 -715 40 -916 72 -355 56 -638 131 -873 232 -85 36 -115 42 -142 27z"/>
</g>


</svg>