<!DOCTYPE svg PUBLIC "-//W3C//DTD SVG 20010904//EN" "http://www.w3.org/TR/2001/REC-SVG-20010904/DTD/svg10.dtd">
<svg version="1.0" xmlns="http://www.w3.org/2000/svg" width="1200px" height="1200px" viewBox="0 0 12000 12000" preserveAspectRatio="xMidYMid meet">
<g id="layer101" fill="#000000" stroke="none">
</g>
<g id="layer102" fill="#413084" stroke="none">
<path d="M1700 11994 c-14 -3 -79 -11 -145 -20 -578 -77 -1084 -437 -1354 -964 -89 -174 -144 -345 -178 -556 -17 -103 -18 -346 -18 -4454 0 -4108 1 -4351 18 -4454 62 -384 217 -703 474 -977 276 -293 633 -479 1049 -546 103 -17 346 -18 4454 -18 4108 0 4351 1 4454 18 416 67 773 253 1049 546 257 274 412 593 474 977 17 103 18 346 18 4449 0 4110 -1 4346 -18 4450 -33 207 -75 339 -162 520 -76 156 -81 164 -169 285 -120 164 -361 387 -521 483 -71 42 -276 137 -345 160 -152 49 -196 59 -359 83 l-166 24 -4265 -1 c-2346 -1 -4276 -3 -4290 -5z"/>
</g>
<g id="layer103" fill="#1fae97" stroke="none">
<path d="M2004 9999 c-6 -11 4 -24 161 -189 50 -52 158 -167 240 -255 83 -88 199 -212 260 -275 154 -161 406 -427 710 -750 282 -300 355 -376 521 -550 119 -124 417 -441 523 -555 36 -38 127 -133 203 -211 76 -78 138 -145 138 -150 0 -9 -115 -133 -460 -494 -92 -96 -209 -220 -261 -276 -167 -180 -398 -424 -599 -634 -108 -113 -265 -279 -350 -370 -85 -91 -237 -253 -340 -360 -102 -107 -266 -280 -365 -385 -98 -104 -211 -222 -249 -262 -64 -65 -136 -147 -136 -155 0 -2 543 -2 1207 0 l1208 2 55 58 c30 31 128 136 219 232 252 269 449 476 651 689 102 107 295 312 429 455 227 242 319 339 786 831 94 99 202 214 240 255 38 41 139 149 225 238 85 90 157 171 159 179 2 9 -18 36 -47 62 -46 43 -207 211 -652 681 -96 102 -209 221 -250 265 -42 44 -121 127 -175 185 -54 58 -140 148 -190 200 -50 52 -212 223 -360 380 -393 417 -421 447 -620 655 -100 105 -249 263 -331 352 l-149 162 -1197 1 c-854 0 -1199 -3 -1204 -11z"/>
<path d="M7169 9603 c-211 -224 -427 -453 -480 -508 -305 -319 -459 -485 -459 -495 0 -6 22 -32 49 -58 27 -26 159 -164 293 -308 134 -143 353 -377 488 -519 299 -316 299 -317 328 -355 13 -16 30 -30 38 -30 8 0 40 28 72 62 31 35 100 108 152 163 52 55 171 181 264 280 93 99 222 234 285 300 64 66 222 232 351 370 291 310 402 427 549 580 64 66 193 201 286 300 94 99 261 275 372 391 153 159 199 214 191 222 -9 9 -316 12 -1204 12 l-1191 0 -384 -407z"/>
<path d="M7366 6743 c-28 -32 -103 -112 -166 -178 -63 -66 -211 -224 -329 -350 -118 -127 -285 -304 -371 -395 -218 -229 -275 -291 -275 -300 0 -4 83 -95 185 -201 102 -107 225 -237 275 -289 49 -52 136 -145 195 -205 157 -165 401 -424 531 -563 63 -67 123 -125 134 -127 11 -3 558 -6 1216 -8 l1197 -2 -20 25 c-11 14 -97 106 -191 205 -95 99 -208 218 -252 265 -44 47 -154 164 -246 260 -91 96 -246 261 -344 365 -99 105 -267 282 -375 395 -107 113 -301 318 -430 455 -129 138 -277 295 -330 350 -110 114 -227 238 -290 308 -23 26 -47 47 -52 47 -6 0 -33 -26 -62 -57z"/>
<path d="M1747 3814 c-4 -4 -7 -416 -7 -916 l0 -908 910 0 910 0 0 210 0 210 -695 0 -695 0 0 140 0 140 695 0 695 0 0 210 0 210 -695 0 -695 0 -2 353 -3 352 -206 3 c-113 1 -208 -1 -212 -4z"/>
<path d="M3765 3810 c-10 -16 -8 -1111 2 -1121 5 -5 99 -8 209 -7 l199 3 0 565 0 565 -202 3 c-126 1 -204 -1 -208 -8z"/>
<path d="M4375 3808 c-3 -7 -4 -418 -3 -913 l3 -900 904 -3 c498 -1 907 1 910 5 4 5 4 175 1 378 l-5 370 -38 78 -38 77 38 77 38 77 5 375 c3 207 4 379 2 384 -2 4 -410 7 -908 7 -714 0 -906 -3 -909 -12z m1393 -534 c2 -100 1 -113 -18 -137 l-22 -27 -466 2 -467 3 -3 124 c-2 68 -1 130 2 138 5 11 91 13 488 11 l483 -3 3 -111z m-19 -608 c19 -17 21 -30 21 -138 l0 -118 -487 2 -488 3 -3 124 c-2 68 -1 130 2 138 5 11 84 13 470 11 440 -3 465 -4 485 -22z"/>
<path d="M8407 3813 c-4 -3 -7 -415 -7 -915 l0 -908 910 0 910 0 0 345 c0 210 -4 365 -11 397 -12 56 -57 147 -92 186 -18 19 -19 26 -9 40 35 50 85 163 98 221 10 48 14 145 14 347 0 248 -2 283 -16 288 -9 3 -103 6 -210 6 l-194 0 0 -261 c0 -178 -4 -275 -12 -303 -16 -52 -84 -121 -135 -136 -26 -7 -164 -10 -433 -8 l-395 3 0 347 c0 339 0 347 -20 352 -29 8 -390 7 -398 -1z m1361 -1143 l33 -20 -3 -118 -3 -117 -485 0 -485 0 -3 124 c-1 69 0 131 2 138 4 10 95 13 458 13 435 0 454 -1 486 -20z"/>
<path d="M3750 2200 l0 -210 215 0 215 0 0 210 0 210 -215 0 -215 0 0 -210z"/>
</g>
<g id="layer104" fill="#ffffff" stroke="none">
<path d="M2004 9999 c-6 -11 4 -24 161 -189 50 -52 158 -167 240 -255 83 -88 199 -212 260 -275 133 -139 388 -408 630 -665 281 -298 511 -541 620 -655 111 -116 403 -425 504 -535 36 -38 127 -134 204 -212 76 -78 137 -146 135 -152 -1 -5 -23 -31 -48 -58 -70 -75 -394 -417 -401 -423 -3 -3 -87 -91 -185 -196 -311 -332 -482 -513 -684 -724 -108 -113 -295 -311 -416 -440 -120 -129 -275 -293 -344 -365 -69 -71 -204 -213 -300 -315 -96 -102 -206 -217 -244 -257 -65 -65 -136 -147 -136 -155 0 -2 543 -2 1207 0 l1207 3 131 137 c72 75 196 207 275 292 79 85 187 200 240 255 53 55 141 147 195 205 54 58 142 150 195 205 53 55 202 213 330 350 286 305 732 778 850 900 47 50 117 124 155 165 38 41 141 151 230 243 88 93 162 176 164 185 2 8 -18 35 -47 61 -46 43 -207 211 -652 681 -96 102 -209 221 -250 265 -42 44 -121 127 -175 185 -54 58 -140 148 -190 200 -50 52 -212 223 -360 380 -393 417 -421 447 -620 655 -100 105 -249 263 -331 352 l-149 162 -1197 1 c-854 0 -1199 -3 -1204 -11z"/>
<path d="M7169 9603 c-211 -224 -427 -453 -480 -508 -308 -323 -459 -486 -459 -495 0 -6 22 -32 49 -58 27 -26 159 -164 293 -308 134 -143 353 -377 488 -519 299 -316 299 -317 328 -355 13 -16 29 -30 36 -30 7 0 114 107 237 238 123 130 267 282 319 337 268 282 448 471 471 494 14 14 93 98 175 186 82 87 232 247 334 354 102 107 219 230 260 274 41 44 224 235 406 426 244 254 329 349 321 359 -7 9 -260 12 -1202 12 l-1192 0 -384 -407z"/>
<path d="M7367 6744 c-29 -32 -125 -135 -213 -228 -225 -238 -797 -846 -869 -924 -33 -36 -60 -68 -60 -72 0 -4 83 -95 185 -201 102 -107 225 -237 275 -289 49 -52 136 -145 195 -205 157 -165 401 -424 531 -563 63 -67 123 -125 134 -127 11 -3 558 -6 1216 -8 l1197 -2 -20 25 c-11 14 -97 106 -191 205 -95 99 -208 218 -252 265 -44 47 -154 164 -246 260 -91 96 -246 261 -344 365 -99 105 -268 282 -375 395 -107 113 -267 282 -355 375 -196 210 -272 290 -401 425 -162 170 -249 262 -284 303 -57 66 -64 66 -123 1z"/>
<path d="M1747 3814 c-4 -4 -7 -416 -7 -916 l0 -908 910 0 910 0 0 210 0 210 -694 0 -695 0 -3 124 c-2 68 -2 131 0 140 3 15 64 16 698 16 l694 0 0 210 0 210 -695 0 -695 0 -2 353 -3 352 -206 3 c-113 1 -208 -1 -212 -4z"/>
<path d="M3765 3810 c-3 -5 -6 -258 -6 -562 0 -479 2 -553 15 -560 8 -5 102 -7 208 -6 l193 3 0 565 0 565 -202 3 c-126 1 -204 -1 -208 -8z"/>
<path d="M4383 3812 c-10 -6 -12 -212 -10 -912 l2 -905 904 -3 c498 -1 907 1 910 5 4 5 4 175 1 378 l-5 370 -38 78 -38 77 38 77 38 77 5 370 c3 204 3 377 1 384 -2 9 -191 12 -900 12 -493 0 -901 -4 -908 -8z m1387 -540 c0 -111 -1 -120 -23 -140 l-24 -22 -464 2 -464 3 -3 124 c-2 68 -1 130 2 138 4 11 95 13 491 13 l485 0 0 -118z m-26 -603 c25 -20 26 -23 26 -140 l0 -119 -487 2 -488 3 -3 124 c-2 68 -1 130 2 138 4 11 90 13 464 13 450 0 460 0 486 -21z"/>
<path d="M6395 3811 c-3 -6 -5 -416 -5 -913 l0 -903 910 -3 910 -2 0 210 0 210 -697 2 -698 3 -3 138 -3 137 701 0 700 0 0 210 0 210 -700 0 -700 0 0 140 0 140 700 0 700 0 0 209 c0 181 -2 210 -16 215 -27 10 -1792 7 -1799 -3z"/>
<path d="M8407 3813 c-4 -3 -7 -415 -7 -915 l0 -908 910 0 910 0 0 338 c0 198 -4 363 -11 398 -11 60 -54 150 -92 192 -18 19 -19 26 -9 40 32 43 91 183 101 236 6 34 11 181 11 337 0 243 -2 278 -16 283 -9 3 -103 6 -210 6 l-194 0 0 -261 c0 -178 -4 -275 -12 -303 -16 -52 -84 -121 -135 -136 -26 -7 -164 -10 -433 -8 l-395 3 0 347 c0 339 0 347 -20 352 -29 8 -390 7 -398 -1z m1372 -1147 c20 -18 21 -28 19 -135 l-3 -116 -485 0 -485 0 -3 124 c-1 69 0 131 2 138 5 11 90 13 470 11 442 -3 465 -4 485 -22z"/>
</g>


</svg>